<svg xmlns="http://www.w3.org/2000/svg" xmlns:xlink="http://www.w3.org/1999/xlink" width="500" zoomAndPan="magnify" viewBox="0 0 375 374.999991" height="500" preserveAspectRatio="xMidYMid meet" version="1.0"><defs><g/></defs><rect x="-37.5" width="450" fill="#ffffff" y="-37.499999" height="449.999989" fill-opacity="1"/><rect x="-37.5" width="450" fill="#212c27" y="-37.499999" height="449.999989" fill-opacity="1"/><g fill="#00ff9d" fill-opacity="0.4"><g transform="translate(105.57133, 320.036747)"><g><path d="M 40.046875 0 L -1.25 0 L 45.375 -219.046875 L 86.671875 -219.046875 L 67.59375 -129.234375 L 75.09375 -129.234375 L 145.828125 -219.046875 L 194.015625 -219.046875 L 194.015625 -215.296875 L 110.78125 -111.40625 L 110.78125 -105.765625 L 163.34375 -1.875 L 163.34375 0 L 117.65625 0 L 71.96875 -89.8125 L 58.828125 -89.8125 Z M 40.046875 0 "/></g></g></g><g fill="#00ff9d" fill-opacity="1"><g transform="translate(91.741712, 306.207131)"><g><path d="M 40.046875 0 L -1.25 0 L 45.375 -219.046875 L 86.671875 -219.046875 L 67.59375 -129.234375 L 75.09375 -129.234375 L 145.828125 -219.046875 L 194.015625 -219.046875 L 194.015625 -215.296875 L 110.78125 -111.40625 L 110.78125 -105.765625 L 163.34375 -1.875 L 163.34375 0 L 117.65625 0 L 71.96875 -89.8125 L 58.828125 -89.8125 Z M 40.046875 0 "/></g></g></g></svg>