<svg xmlns="http://www.w3.org/2000/svg" xmlns:xlink="http://www.w3.org/1999/xlink" width="500" zoomAndPan="magnify" viewBox="0 0 375 374.999991" height="500" preserveAspectRatio="xMidYMid meet" version="1.2"><defs/><g id="2ce8c2d90b"><rect x="0" width="375" y="0" height="374.999991" style="fill:#ffffff;fill-opacity:1;stroke:none;"/><rect x="0" width="375" y="0" height="374.999991" style="fill:#ffffff;fill-opacity:1;stroke:none;"/><g style="fill:#00ff9d;fill-opacity:0.4;"><g transform="translate(108.927252, 319.081303)"><path style="stroke:none" d="M 40.046875 0 L -1.25 0 L 45.375 -219.046875 L 86.671875 -219.046875 L 67.59375 -129.234375 L 75.09375 -129.234375 L 145.828125 -219.046875 L 194.015625 -219.046875 L 194.015625 -215.296875 L 110.78125 -111.40625 L 110.78125 -105.765625 L 163.34375 -1.875 L 163.34375 0 L 117.65625 0 L 71.96875 -89.8125 L 58.828125 -89.8125 Z M 40.046875 0 "/></g></g><g style="fill:#00ff9d;fill-opacity:1;"><g transform="translate(95.097653, 305.251703)"><path style="stroke:none" d="M 40.046875 0 L -1.25 0 L 45.375 -219.046875 L 86.671875 -219.046875 L 67.59375 -129.234375 L 75.09375 -129.234375 L 145.828125 -219.046875 L 194.015625 -219.046875 L 194.015625 -215.296875 L 110.78125 -111.40625 L 110.78125 -105.765625 L 163.34375 -1.875 L 163.34375 0 L 117.65625 0 L 71.96875 -89.8125 L 58.828125 -89.8125 Z M 40.046875 0 "/></g></g></g></svg>