<svg xmlns="http://www.w3.org/2000/svg" xmlns:xlink="http://www.w3.org/1999/xlink" width="500" zoomAndPan="magnify" viewBox="0 0 375 374.999991" height="500" preserveAspectRatio="xMidYMid meet" version="1.0"><defs><g/></defs><g fill="#00ff9d" fill-opacity="0.4"><g transform="translate(105.685692, 282.060697)"><g><path d="M 20.3125 -133.75 C 26.769531 -164.582031 37.550781 -187.1875 52.65625 -201.5625 C 67.757812 -215.9375 88.539062 -223.125 115 -223.125 C 126.039062 -223.125 135.832031 -221.40625 144.375 -217.96875 C 152.914062 -214.53125 160.101562 -209.738281 165.9375 -203.59375 C 171.769531 -197.445312 176.195312 -190.207031 179.21875 -181.875 C 182.238281 -173.539062 183.75 -164.582031 183.75 -155 C 183.75 -151.457031 183.59375 -147.914062 183.28125 -144.375 C 182.96875 -140.832031 182.394531 -137.289062 181.5625 -133.75 L 171.25 -85 C 165.207031 -56.039062 155.3125 -34.375 141.5625 -20 C 127.8125 -5.625 109.269531 2.394531 85.9375 4.0625 L 85 8.125 C 84.789062 9.164062 84.6875 10.101562 84.6875 10.9375 C 84.6875 14.894531 86.976562 16.875 91.5625 16.875 L 109.0625 16.875 L 109.0625 54.375 L 71.875 54.375 C 63.125 54.375 56.039062 51.925781 50.625 47.03125 C 45.207031 42.132812 42.5 35.832031 42.5 28.125 C 42.5 26.457031 42.601562 24.894531 42.8125 23.4375 C 43.019531 21.976562 43.332031 20.414062 43.75 18.75 L 48.125 -0.3125 C 35 -5.101562 25 -13.125 18.125 -24.375 C 11.25 -35.625 7.8125 -48.75 7.8125 -63.75 C 7.8125 -67.289062 7.96875 -70.832031 8.28125 -74.375 C 8.59375 -77.914062 9.164062 -81.457031 10 -85 Z M 80.3125 -33.125 C 87.394531 -33.125 93.644531 -34.425781 99.0625 -37.03125 C 104.476562 -39.632812 109.21875 -43.125 113.28125 -47.5 C 117.34375 -51.875 120.675781 -57.082031 123.28125 -63.125 C 125.882812 -69.164062 127.914062 -75.625 129.375 -82.5 L 140.9375 -136.25 C 141.5625 -139.582031 142.03125 -142.445312 142.34375 -144.84375 C 142.65625 -147.238281 142.8125 -149.582031 142.8125 -151.875 C 142.8125 -162.5 140.050781 -170.78125 134.53125 -176.71875 C 129.007812 -182.65625 121.25 -185.625 111.25 -185.625 C 104.164062 -185.625 97.914062 -184.320312 92.5 -181.71875 C 87.082031 -179.113281 82.34375 -175.625 78.28125 -171.25 C 74.21875 -166.875 70.882812 -161.664062 68.28125 -155.625 C 65.675781 -149.582031 63.644531 -143.125 62.1875 -136.25 L 50.625 -82.5 C 49.375 -76.875 48.75 -71.664062 48.75 -66.875 C 48.75 -56.25 51.507812 -47.96875 57.03125 -42.03125 C 62.550781 -36.09375 70.3125 -33.125 80.3125 -33.125 Z M 80.3125 -33.125 "/></g></g></g><g fill="#00ff9d" fill-opacity="1"><g transform="translate(91.874998, 268.250008)"><g><path d="M 20.3125 -133.75 C 26.769531 -164.582031 37.550781 -187.1875 52.65625 -201.5625 C 67.757812 -215.9375 88.539062 -223.125 115 -223.125 C 126.039062 -223.125 135.832031 -221.40625 144.375 -217.96875 C 152.914062 -214.53125 160.101562 -209.738281 165.9375 -203.59375 C 171.769531 -197.445312 176.195312 -190.207031 179.21875 -181.875 C 182.238281 -173.539062 183.75 -164.582031 183.75 -155 C 183.75 -151.457031 183.59375 -147.914062 183.28125 -144.375 C 182.96875 -140.832031 182.394531 -137.289062 181.5625 -133.75 L 171.25 -85 C 165.207031 -56.039062 155.3125 -34.375 141.5625 -20 C 127.8125 -5.625 109.269531 2.394531 85.9375 4.0625 L 85 8.125 C 84.789062 9.164062 84.6875 10.101562 84.6875 10.9375 C 84.6875 14.894531 86.976562 16.875 91.5625 16.875 L 109.0625 16.875 L 109.0625 54.375 L 71.875 54.375 C 63.125 54.375 56.039062 51.925781 50.625 47.03125 C 45.207031 42.132812 42.5 35.832031 42.5 28.125 C 42.5 26.457031 42.601562 24.894531 42.8125 23.4375 C 43.019531 21.976562 43.332031 20.414062 43.75 18.75 L 48.125 -0.3125 C 35 -5.101562 25 -13.125 18.125 -24.375 C 11.25 -35.625 7.8125 -48.75 7.8125 -63.75 C 7.8125 -67.289062 7.96875 -70.832031 8.28125 -74.375 C 8.59375 -77.914062 9.164062 -81.457031 10 -85 Z M 80.3125 -33.125 C 87.394531 -33.125 93.644531 -34.425781 99.0625 -37.03125 C 104.476562 -39.632812 109.21875 -43.125 113.28125 -47.5 C 117.34375 -51.875 120.675781 -57.082031 123.28125 -63.125 C 125.882812 -69.164062 127.914062 -75.625 129.375 -82.5 L 140.9375 -136.25 C 141.5625 -139.582031 142.03125 -142.445312 142.34375 -144.84375 C 142.65625 -147.238281 142.8125 -149.582031 142.8125 -151.875 C 142.8125 -162.5 140.050781 -170.78125 134.53125 -176.71875 C 129.007812 -182.65625 121.25 -185.625 111.25 -185.625 C 104.164062 -185.625 97.914062 -184.320312 92.5 -181.71875 C 87.082031 -179.113281 82.34375 -175.625 78.28125 -171.25 C 74.21875 -166.875 70.882812 -161.664062 68.28125 -155.625 C 65.675781 -149.582031 63.644531 -143.125 62.1875 -136.25 L 50.625 -82.5 C 49.375 -76.875 48.75 -71.664062 48.75 -66.875 C 48.75 -56.25 51.507812 -47.96875 57.03125 -42.03125 C 62.550781 -36.09375 70.3125 -33.125 80.3125 -33.125 Z M 80.3125 -33.125 "/></g></g></g></svg>